<svg width="31" height="27" viewBox="0 0 31 27" fill="none" xmlns="http://www.w3.org/2000/svg">
<path d="M15.8387 11.9003L4.16777 7.04386C3.86185 6.91818 3.51199 7.06429 3.38631 7.37021C3.35704 7.44147 3.34177 7.51775 3.3414 7.59477V11.8524H5.569C5.8997 11.8524 6.16782 12.1205 6.16782 12.4512C6.16782 12.7819 5.8997 13.05 5.569 13.05H2.50306C2.17236 13.0504 1.90461 13.3189 1.90506 13.6496C1.90551 13.9797 2.17296 14.2472 2.50306 14.2476H3.3414V14.7686H9.58108C9.91177 14.7686 10.1799 15.0367 10.1799 15.3674C10.1799 15.6981 9.91177 15.9662 9.58108 15.9662H0.598817C0.26812 15.9662 0 16.2344 0 16.5651C0 16.8958 0.26812 17.1639 0.598817 17.1639H3.35338V17.6848H6.69478C7.02548 17.6848 7.2936 17.953 7.2936 18.2837C7.2936 18.6144 7.02548 18.8825 6.69478 18.8825H1.64675C1.31605 18.8825 1.04793 19.1506 1.04793 19.4813C1.04793 19.812 1.31605 20.0801 1.64675 20.0801H3.3414V21.0502C3.32037 21.3062 3.46491 21.5471 3.70069 21.649L15.3776 26.4815C15.6836 26.6071 16.0334 26.461 16.1591 26.1551C16.1884 26.0839 16.2036 26.0076 16.204 25.9306V12.4512C16.2038 12.2109 16.06 11.994 15.8387 11.9003Z" fill="#FFCA33"/>
<path d="M29.905 7.09786C29.7382 6.98685 29.5269 6.96664 29.3421 7.04396L17.6771 11.9004C17.4535 11.9922 17.307 12.2095 17.3058 12.4513V25.9307C17.3075 26.2614 17.577 26.5281 17.9077 26.5265C17.9847 26.5261 18.061 26.5108 18.1322 26.4816L29.8032 21.6491C30.0267 21.5573 30.1732 21.34 30.1744 21.0982V7.59487C30.1734 7.39457 30.0723 7.20804 29.905 7.09786ZM20.1742 23.739C20.1706 23.981 20.1002 24.2172 19.9706 24.4216C19.7562 24.7612 19.3779 24.9618 18.9765 24.9486C18.9028 24.9547 18.8287 24.9547 18.755 24.9486C18.0834 24.7997 17.6596 24.1347 17.8085 23.4631C17.8927 23.083 18.1499 22.7641 18.5035 22.6012C18.6539 22.5411 18.8146 22.5106 18.9765 22.5114C19.638 22.5112 20.1743 23.0472 20.1746 23.7087C20.1746 23.7188 20.1744 23.7289 20.1742 23.739ZM22.7611 23.2599C22.6066 23.7329 22.1628 24.0507 21.6652 24.0444C21.4988 24.045 21.3339 24.0124 21.1802 23.9486C20.724 23.7474 20.4402 23.2847 20.4676 22.7869C20.4676 22.1254 21.0038 21.5892 21.6652 21.5892C22.3267 21.5892 22.8629 22.1254 22.8629 22.7869C22.8576 22.9494 22.8231 23.1096 22.7611 23.2599Z" fill="#FFCA33"/>
<path d="M28.6474 4.74445L24.1264 2.948L22.5754 3.61269L12.7369 7.83435L11.2039 8.47508L16.5274 10.6907C16.6749 10.7522 16.8409 10.7522 16.9885 10.6907L28.6594 5.8343C28.8767 5.7423 29.0198 5.5313 29.0247 5.29536C29.0225 5.05217 28.8734 4.83442 28.6474 4.74445Z" fill="#FFCA33"/>
<path d="M16.9824 0.0436762C16.8384 -0.0145587 16.6773 -0.0145587 16.5333 0.0436762L4.86237 4.74439C4.55645 4.87007 4.41034 5.21993 4.53602 5.52585C4.5968 5.67391 4.71439 5.79142 4.86237 5.8522H4.85638L9.68884 7.87621L11.2218 7.21751L21.0424 2.98387L22.5934 2.31319L16.9824 0.0436762Z" fill="#FFCA33"/>
<path d="M19.0072 23.0869C18.9969 23.0864 18.9867 23.0862 18.9765 23.0862C18.6296 23.0696 18.335 23.3375 18.3185 23.6842C18.302 24.0311 18.5698 24.3257 18.9166 24.3422C19.2635 24.3587 19.5581 24.0909 19.5746 23.7441C19.575 23.7344 19.5752 23.7247 19.5753 23.7149C19.5918 23.3846 19.3375 23.1035 19.0072 23.0869Z" fill="#FFCA33"/>
<path d="M21.6959 22.1587C21.6856 22.1582 21.6755 22.158 21.6652 22.158C21.3183 22.1414 21.0237 22.4092 21.0073 22.756C20.9907 23.1029 21.2585 23.3975 21.6053 23.414C21.9522 23.4305 22.2468 23.1627 22.2633 22.8159C22.2637 22.8062 22.264 22.7964 22.264 22.7866C22.2806 22.4564 22.0262 22.1752 21.6959 22.1587Z" fill="#FFCA33"/>
</svg>
