<svg width="26" height="26" viewBox="0 0 26 26" fill="none" xmlns="http://www.w3.org/2000/svg">
<path d="M16.0588 0.447998V4.58827H20.1991L16.0588 0.447998Z" fill="#333333"/>
<path d="M13.7647 14.5294C13.7647 10.7345 16.8521 7.64706 20.6471 7.64706V6.11765H14.5294V0H3.05884V22.9412H20.6471V21.4118C16.8521 21.4118 13.7647 18.3244 13.7647 14.5294ZM6.11766 4.58824H12.2353V6.11765H6.11766V4.58824ZM12.2353 18.3529H6.11766V16.8235H12.2353V18.3529ZM12.2353 15.2941H6.11766V13.7647H12.2353V15.2941ZM12.2353 12.2353H6.11766V10.7059H12.2353V12.2353ZM13 9.17647H6.11766V7.64706H13V9.17647Z" fill="#333333"/>
<path d="M20.6471 9.17651C17.6955 9.17651 15.2941 11.5778 15.2941 14.5295C15.2941 17.4811 17.6955 19.8824 20.6471 19.8824C23.5987 19.8824 26 17.4811 26 14.5295C26 11.5778 23.5987 9.17651 20.6471 9.17651ZM20.1064 16.9163L18.0363 14.8462L19.1177 13.7647L20.1064 14.7535L22.6244 12.2353L23.7059 13.3168L20.1064 16.9163Z" fill="#333333"/>
<path d="M1.52941 1.5293H0V25.9999H19.1176V24.4705H1.52941V1.5293Z" fill="#333333"/>
</svg>
