<svg width="60" height="60" viewBox="0 0 60 60" fill="none" xmlns="http://www.w3.org/2000/svg">
<circle cx="30" cy="30" r="29.5" stroke="#FFCA33"/>
<path d="M28.8387 28.9003L17.1678 24.0439C16.8618 23.9182 16.512 24.0643 16.3863 24.3702C16.357 24.4415 16.3418 24.5177 16.3414 24.5948V28.8524H18.569C18.8997 28.8524 19.1678 29.1205 19.1678 29.4512C19.1678 29.7819 18.8997 30.05 18.569 30.05H15.5031C15.1724 30.0504 14.9046 30.3189 14.9051 30.6496C14.9055 30.9797 15.173 31.2472 15.5031 31.2476H16.3414V31.7686H22.5811C22.9118 31.7686 23.1799 32.0367 23.1799 32.3674C23.1799 32.6981 22.9118 32.9662 22.5811 32.9662H13.5988C13.2681 32.9662 13 33.2344 13 33.5651C13 33.8958 13.2681 34.1639 13.5988 34.1639H16.3534V34.6848H19.6948C20.0255 34.6848 20.2936 34.953 20.2936 35.2837C20.2936 35.6144 20.0255 35.8825 19.6948 35.8825H14.6467C14.3161 35.8825 14.0479 36.1506 14.0479 36.4813C14.0479 36.812 14.3161 37.0801 14.6467 37.0801H16.3414V38.0502C16.3204 38.3062 16.4649 38.5471 16.7007 38.649L28.3776 43.4815C28.6836 43.6071 29.0334 43.461 29.1591 43.1551C29.1884 43.0839 29.2036 43.0076 29.204 42.9306V29.4512C29.2038 29.2109 29.06 28.994 28.8387 28.9003Z" fill="#FFCA33"/>
<path d="M42.905 24.0979C42.7382 23.9868 42.5269 23.9666 42.3421 24.044L30.6771 28.9004C30.4535 28.9922 30.307 29.2095 30.3058 29.4513V42.9307C30.3075 43.2614 30.577 43.5281 30.9077 43.5265C30.9847 43.5261 31.061 43.5108 31.1322 43.4816L42.8032 38.6491C43.0267 38.5573 43.1732 38.34 43.1744 38.0982V24.5949C43.1734 24.3946 43.0723 24.208 42.905 24.0979ZM33.1742 40.739C33.1706 40.981 33.1002 41.2172 32.9706 41.4216C32.7562 41.7612 32.3779 41.9618 31.9765 41.9486C31.9028 41.9547 31.8287 41.9547 31.755 41.9486C31.0834 41.7997 30.6596 41.1347 30.8085 40.4631C30.8927 40.083 31.1499 39.7641 31.5035 39.6012C31.6539 39.5411 31.8146 39.5106 31.9765 39.5114C32.638 39.5112 33.1743 40.0472 33.1746 40.7087C33.1746 40.7188 33.1744 40.7289 33.1742 40.739ZM35.7611 40.2599C35.6066 40.7329 35.1628 41.0507 34.6652 41.0444C34.4988 41.045 34.3339 41.0124 34.1802 40.9486C33.724 40.7474 33.4402 40.2847 33.4676 39.7869C33.4676 39.1254 34.0038 38.5892 34.6652 38.5892C35.3267 38.5892 35.8629 39.1254 35.8629 39.7869C35.8576 39.9494 35.8231 40.1096 35.7611 40.2599Z" fill="#FFCA33"/>
<path d="M41.6474 21.7445L37.1264 19.948L35.5754 20.6127L25.7369 24.8343L24.2039 25.4751L29.5274 27.6907C29.6749 27.7522 29.8409 27.7522 29.9885 27.6907L41.6594 22.8343C41.8767 22.7423 42.0198 22.5313 42.0247 22.2954C42.0225 22.0522 41.8734 21.8344 41.6474 21.7445Z" fill="#FFCA33"/>
<path d="M29.9824 17.0437C29.8384 16.9854 29.6773 16.9854 29.5333 17.0437L17.8624 21.7444C17.5564 21.8701 17.4103 22.2199 17.536 22.5258C17.5968 22.6739 17.7144 22.7914 17.8624 22.8522H17.8564L22.6888 24.8762L24.2218 24.2175L34.0424 19.9839L35.5934 19.3132L29.9824 17.0437Z" fill="#FFCA33"/>
<path d="M32.0072 40.0869C31.9969 40.0864 31.9867 40.0862 31.9765 40.0862C31.6296 40.0696 31.335 40.3375 31.3185 40.6842C31.302 41.0311 31.5698 41.3257 31.9166 41.3422C32.2635 41.3587 32.5581 41.0909 32.5746 40.7441C32.575 40.7344 32.5752 40.7247 32.5753 40.7149C32.5918 40.3846 32.3375 40.1035 32.0072 40.0869Z" fill="#FFCA33"/>
<path d="M34.6959 39.1587C34.6856 39.1582 34.6755 39.158 34.6652 39.158C34.3183 39.1414 34.0237 39.4092 34.0073 39.756C33.9907 40.1029 34.2585 40.3975 34.6053 40.414C34.9522 40.4305 35.2468 40.1627 35.2633 39.8159C35.2637 39.8062 35.264 39.7964 35.264 39.7866C35.2806 39.4564 35.0262 39.1752 34.6959 39.1587Z" fill="#FFCA33"/>
</svg>
