<svg width="28" height="27" viewBox="0 0 28 27" fill="none" xmlns="http://www.w3.org/2000/svg">
<path d="M15.2173 26.9916C13.797 26.906 12.495 26.4775 11.2523 25.8777C8.47086 24.5638 6.10369 22.7644 4.0916 20.4794C2.61212 18.7942 1.39894 16.9376 0.600025 14.8811C0.21536 13.8814 -0.0509465 12.8532 0.00823268 11.7678C0.0674119 11.0823 0.333718 10.511 0.836742 10.054C1.39894 9.53991 1.90197 9.02578 2.46417 8.51165C3.17432 7.82615 4.06201 7.82615 4.77216 8.51165C5.216 8.94009 5.63026 9.33997 6.0741 9.76841C6.48836 10.1683 6.9322 10.5967 7.34646 10.9966C8.0862 11.7107 8.0862 12.5675 7.34646 13.2816C6.81384 13.7957 6.28123 14.3099 5.74862 14.824C5.60067 14.9668 5.60067 15.0525 5.65985 15.2239C6.01492 16.0522 6.51795 16.7662 7.10974 17.4517C8.26373 18.8227 9.59527 20.0509 11.1339 20.9935C11.4594 21.1934 11.8441 21.3363 12.1992 21.5362C12.3767 21.6219 12.495 21.5933 12.643 21.4505C13.1756 20.9364 13.7082 20.3937 14.2408 19.8796C14.951 19.1941 15.8387 19.1941 16.5488 19.8796C17.4069 20.7079 18.2946 21.5362 19.1527 22.3931C19.8629 23.1071 19.8629 23.964 19.1527 24.6495C18.6497 25.1351 18.1467 25.5921 17.6732 26.0776C17.0223 26.8203 16.1937 27.0488 15.2173 26.9916ZM12.6726 14.2242L12.5838 14.1385C9.5065 10.7967 9.65445 5.68396 12.9685 2.48495C16.4009 -0.828315 21.9933 -0.828315 25.4257 2.48495C28.8581 5.79821 28.8581 11.1965 25.4257 14.5098C22.5259 17.3089 18.1171 17.7374 14.7439 15.8237L14.7143 15.7951C13.3827 16.7662 11.9624 16.9376 10.9564 16.7948C10.6309 16.7377 10.5717 16.3092 10.8676 16.1664C11.7553 15.7665 12.3471 14.9097 12.6726 14.2242ZM18.1171 4.6557C18.1171 5.42689 18.768 6.05527 19.567 6.05527C20.3363 6.05527 20.9873 5.42689 20.9873 4.6557C20.9873 3.88451 20.3659 3.25614 19.567 3.25614C18.768 3.25614 18.1171 3.88451 18.1171 4.6557ZM17.0223 7.34059C17.1702 7.39771 17.3477 7.39771 17.4957 7.42627C17.8508 7.4834 17.9987 7.59765 17.9691 7.96896C17.9691 8.02609 17.9691 8.08321 17.9691 8.14034C17.8212 8.99722 17.6436 9.88266 17.4957 10.7395C17.4069 11.2251 17.3182 11.7392 17.259 12.2248C17.1406 12.9674 17.8804 13.6529 18.4721 13.71C18.8272 13.7672 19.1823 13.7672 19.5078 13.7672C20.2475 13.7672 20.8689 13.453 21.4015 12.9389C21.4903 12.8532 21.5791 12.7389 21.6086 12.5961C21.6678 12.3962 21.4903 12.2534 21.2832 12.339C21.1352 12.3962 21.0169 12.4819 20.8689 12.539C20.6914 12.5961 20.5138 12.6532 20.3363 12.6818C20.1292 12.7104 19.9516 12.5961 19.8925 12.3962C19.8629 12.2534 19.8333 12.082 19.8629 11.9106C19.8925 11.5678 19.9812 11.2537 20.0404 10.9395C20.2179 9.93978 20.4251 8.96865 20.6026 7.96896C20.6618 7.7119 20.6914 7.42627 20.6914 7.16921C20.6914 6.85502 20.4842 6.68365 20.1588 6.68365C19.6853 6.68365 19.2119 6.68365 18.768 6.68365C18.3242 6.68365 17.8804 6.68365 17.4365 6.68365C17.3182 6.68365 17.2294 6.68365 17.111 6.71221C16.9039 6.74077 16.8151 6.85502 16.7855 6.99784C16.756 7.14065 16.8151 7.2549 17.0223 7.34059Z" fill="#333333"/>
</svg>
