<svg width="26" height="26" viewBox="0 0 26 26" fill="none" xmlns="http://www.w3.org/2000/svg">
<path d="M5.30757 14.0554C6.86851 15.3257 8.81917 16.0491 10.8272 16.1085V14.239H15.1729V16.1085C17.181 16.0491 19.1316 15.3257 20.6926 14.0554C22.1613 12.8601 23.226 11.2286 23.735 9.41221V6.4108H19.8921C19.6353 2.83278 16.6424 0 13 0C9.35766 0 6.36478 2.83278 6.10801 6.4108H2.26514V9.41221C2.7741 11.2286 3.83889 12.8601 5.30757 14.0554ZM13 1.52475C15.8012 1.52475 18.1093 3.67454 18.3622 6.4108H7.63789C7.89075 3.67454 10.1989 1.52475 13 1.52475Z" fill="#333333"/>
<path d="M25.226 17.9691L24.1459 12.3213C23.5012 13.429 22.659 14.421 21.6549 15.2382C19.8229 16.7292 17.5306 17.5744 15.1729 17.6342V19.5253H10.8272V17.6342C8.46949 17.5744 6.17714 16.7292 4.3451 15.2382C3.34106 14.421 2.49889 13.429 1.85412 12.3213L0.774043 17.9691C0.329275 19.9275 0.791476 21.951 2.04329 23.5224C3.29806 25.0975 5.17274 26.001 7.18662 26.001H18.8135C20.8274 26.001 22.702 25.0976 23.9568 23.5224C25.2086 21.951 25.6708 19.9275 25.226 17.9691Z" fill="#333333"/>
<path d="M12.3519 15.7637H13.6481V18.0003H12.3519V15.7637Z" fill="#333333"/>
</svg>
